<?xml version="1.0" standalone="no"?>
<!DOCTYPE svg PUBLIC "-//W3C//DTD SVG 20010904//EN"
 "http://www.w3.org/TR/2001/REC-SVG-20010904/DTD/svg10.dtd">
<svg version="1.0" xmlns="http://www.w3.org/2000/svg"
 width="410.000000pt" height="351.000000pt" viewBox="0 0 410.000000 351.000000"
 preserveAspectRatio="xMidYMid meet">

<g transform="translate(0.000000,351.000000) scale(0.100000,-0.100000)"
fill="#000000" stroke="none">
<path d="M1949 3341 c-24 -16 -256 -242 -515 -502 -400 -401 -474 -480 -483
-514 -15 -55 -14 -73 8 -120 23 -49 972 -999 1014 -1014 40 -15 113 -14 145 3
15 8 244 232 509 498 332 332 487 495 498 520 19 47 19 79 0 126 -20 46 -952
984 -1007 1013 -55 28 -115 25 -169 -10z m177 -180 c52 -37 140 -132 148 -159
4 -11 17 -24 29 -28 21 -6 87 -62 87 -73 0 -4 -42 -5 -92 -3 l-93 2 35 -29
c19 -17 42 -29 50 -26 8 2 45 6 81 10 52 5 68 3 78 -9 14 -16 11 -18 -129 -73
-85 -34 -89 -38 -42 -50 38 -10 45 -8 123 38 54 32 87 45 93 39 11 -11 0 -25
-104 -134 l-65 -68 40 7 c52 9 47 4 106 90 40 57 55 72 65 64 10 -9 5 -33 -26
-122 -22 -60 -38 -112 -35 -115 2 -3 16 3 29 12 34 22 36 21 36 -19 l0 -35
-89 0 c-100 0 -101 -1 -101 -77 l0 -45 -89 7 -90 7 -7 -62 -7 -62 -88 4 -89 3
0 -57 c0 -31 -4 -60 -10 -63 -5 -3 -38 -3 -72 1 l-63 7 43 19 c48 22 55 38 14
38 -33 0 -60 31 -86 100 -15 40 -23 48 -65 63 -50 18 -61 36 -61 104 0 23 1
23 29 9 36 -19 89 -5 128 36 21 23 24 31 14 41 -10 9 -15 8 -26 -6 -7 -10 -28
-22 -46 -28 -31 -8 -36 -7 -60 19 -23 26 -26 36 -21 81 l5 51 -36 0 c-39 0
-58 -20 -50 -51 4 -14 0 -19 -17 -19 -12 0 -49 -16 -81 -36 -63 -38 -74 -58
-67 -120 4 -35 4 -36 -12 -17 -16 20 -16 20 -50 -4 -19 -13 -41 -28 -49 -32
-10 -6 -11 -13 -2 -30 10 -19 8 -26 -13 -52 -34 -40 -33 -53 4 -34 38 20 47
19 55 -5 3 -11 14 -20 24 -20 9 0 32 -13 51 -30 19 -16 42 -29 50 -30 8 0 40
27 70 61 l56 61 50 -7 c46 -6 55 -11 86 -53 19 -26 40 -62 46 -79 10 -30 9
-33 -9 -33 -17 0 -19 -7 -19 -61 l0 -61 -92 3 -93 4 -3 -61 -3 -62 -87 5 -87
5 -138 137 c-76 75 -145 148 -153 163 -18 35 -18 82 1 122 14 30 768 789 829
834 43 33 112 30 162 -7z m554 -559 c0 -12 -12 -13 -62 -8 -35 4 -64 9 -65 10
-2 2 2 28 9 60 l11 57 54 -52 c29 -30 53 -60 53 -67z m-1135 -183 c-3 -50 -13
-106 -21 -125 -13 -30 -17 -33 -35 -24 -20 11 -20 11 1 28 18 15 19 19 7 36
-10 14 -11 33 -5 78 9 69 22 98 45 98 14 0 15 -11 8 -91z m1316 14 c37 -38 74
-79 83 -93 20 -30 21 -92 2 -128 -8 -15 -201 -212 -428 -439 -447 -445 -441
-440 -520 -414 -42 14 -427 396 -413 409 6 5 154 96 330 203 176 106 444 268
595 360 151 92 277 168 280 168 3 1 35 -29 71 -66z"/>
<path d="M80 587 l-25 -13 -3 -233 c-2 -164 1 -238 9 -247 9 -11 48 -14 170
-14 182 0 179 -2 179 94 l0 56 -60 0 c-57 0 -60 -1 -60 -25 0 -24 -2 -25 -65
-25 l-65 0 0 155 0 155 65 0 c63 0 65 -1 65 -25 0 -24 3 -25 60 -25 l61 0 -3
67 c-3 61 -6 69 -28 80 -34 17 -266 17 -300 0z"/>
<path d="M467 593 c-4 -3 -7 -120 -7 -260 l0 -253 60 0 60 0 0 105 0 105 80 0
80 0 0 -105 0 -105 55 0 55 0 0 260 0 260 -55 0 -54 0 -3 -102 -3 -103 -77 -3
-78 -3 0 106 0 105 -53 0 c-30 0 -57 -3 -60 -7z"/>
<path d="M917 593 c-4 -3 -7 -120 -7 -260 l0 -253 145 0 145 0 0 50 0 50 -85
0 -85 0 0 65 0 65 80 0 80 0 0 40 0 40 -80 0 -80 0 0 50 0 50 85 0 85 0 0 55
0 55 -138 0 c-76 0 -142 -3 -145 -7z"/>
<path d="M1283 585 c-23 -16 -23 -19 -23 -249 0 -167 3 -235 12 -244 8 -8 60
-12 170 -12 181 0 178 -2 178 94 l0 56 -60 0 c-57 0 -60 -1 -60 -25 0 -24 -2
-25 -65 -25 l-65 0 0 155 0 155 65 0 c63 0 65 -1 65 -25 0 -24 3 -25 60 -25
l60 0 0 58 c0 94 -4 96 -172 100 -119 2 -147 0 -165 -13z"/>
<path d="M1677 594 c-4 -4 -7 -121 -7 -261 l0 -253 60 0 59 0 3 93 3 92 39
-92 39 -93 58 0 58 0 -36 82 c-19 46 -44 108 -56 138 l-20 55 47 112 c25 62
46 117 46 123 0 6 -23 10 -54 10 l-54 0 -34 -87 -33 -88 -5 85 -5 85 -50 3
c-28 2 -54 0 -58 -4z"/>
<path d="M2222 584 c-20 -14 -22 -23 -22 -108 0 -90 1 -94 26 -111 l27 -17
-28 -23 c-26 -20 -29 -28 -33 -106 -2 -47 1 -96 7 -111 l11 -28 158 0 c110 0
162 4 170 12 8 8 12 48 12 115 l0 103 30 0 c28 0 30 2 30 40 0 36 -2 40 -25
40 -14 0 -28 7 -31 15 -9 22 -110 21 -118 0 -4 -13 -19 -15 -68 -13 l-63 3 -3
48 -3 47 70 0 c56 0 71 -3 71 -15 0 -12 13 -15 55 -15 l56 0 -3 57 c-4 77 -16
83 -178 83 -98 0 -130 -3 -148 -16z m216 -341 l3 -63 -71 0 -70 0 0 58 c0 32
3 62 7 66 4 4 34 6 68 4 l60 -3 3 -62z"/>
<path d="M2820 341 l0 -261 60 0 60 0 1 88 1 87 40 -87 41 -88 63 0 63 0 -35
78 c-71 152 -68 142 -36 142 15 0 33 5 40 12 15 15 17 245 2 268 -7 12 -39 16
-155 18 l-145 3 0 -260z m208 87 l-3 -63 -50 0 -50 0 -3 63 -3 62 56 0 56 0
-3 -62z"/>
<path d="M3207 593 c-11 -10 -8 -459 3 -487 l10 -26 159 0 c135 0 161 2 172
17 11 13 14 67 14 257 l0 241 -57 3 -58 3 0 -211 0 -210 -65 0 -65 0 0 164 c0
90 -3 184 -6 210 l-7 46 -47 0 c-26 0 -50 -3 -53 -7z"/>
<path d="M3620 340 l0 -260 55 0 54 0 3 133 3 132 84 -132 83 -133 54 0 54 0
-2 258 -3 257 -57 3 -57 3 -3 -135 -3 -136 -85 135 -85 135 -47 0 -48 0 0
-260z"/>
</g>
</svg>
